<svg id="bu-iti-logo" viewBox="0 0 7374 1652" xmlns="http://www.w3.org/2000/svg" xml:space="preserve" style="fill-rule:evenodd;clip-rule:evenodd;stroke-linejoin:round;stroke-miterlimit:2">
  <path d="M1898.99 175.262c-4.844-18.667-19.941-33.386-44.536-33.386-22.331 0-35.462 10.662-35.698 29.549-.55 41.894 107.408 31.294 107.408 92.798 0 27.757-15.616 56.189-64.209 56.189-41.878 0-58.358-27.159-68.329-49.851l19.249-6.904c7.721 20.145 21.906 38.607 49.961 38.607s42.161-14.672 42.161-34.266c0-48.782-107.534-34.456-107.534-94.922 0-27.442 23.133-49.175 57.494-49.175 29.644 0 53.044 15.49 63.093 47.241l-19.06 4.12ZM2080.33 260.404c-8.618 35.54-28.165 60.01-67.401 60.01-42.853 0-73.157-31.389-73.157-98.35 0-62.196 27.158-98.161 73.157-98.161 35.572 0 56.33 20.648 64.712 55.717l-19.642 5.724c-6.872-27.175-18.965-43.467-47.712-43.467-27.473 0-49.207 25.524-49.207 80.187 0 55.292 21.734 80.296 53.563 80.296 29.313 0 40.667-22.205 46.501-45.605l19.186 3.649ZM2239.87 126.457v191.289h-21.198v-91.194h-91.651v91.194h-21.23V126.457h21.23v82.105h91.651v-82.105h21.198ZM2343.31 302.36c33.685 0 53.499-25.869 53.499-80.28 0-54.223-19.814-80.203-53.499-80.203-33.701 0-53.547 25.98-53.547 80.203 0 54.411 19.846 80.28 53.547 80.28m0-178.457c46.879 0 74.54 34.361 74.54 98.177 0 63.878-27.661 98.334-74.54 98.334-46.832 0-74.761-34.456-74.761-98.334 0-63.816 27.929-98.177 74.761-98.177M2506.65 302.36c33.59 0 53.405-25.869 53.405-80.28 0-54.223-19.815-80.203-53.405-80.203-33.732 0-53.641 25.98-53.641 80.203 0 54.411 19.909 80.28 53.641 80.28m0-178.457c46.769 0 74.651 34.361 74.651 98.177 0 63.878-27.882 98.334-74.651 98.334-46.848 0-74.761-34.456-74.761-98.334 0-63.816 27.913-98.177 74.761-98.177M2610.35 317.748v-191.29h21.12v173.347h90.675v17.943H2610.35ZM2871.36 302.36c33.591 0 53.531-25.869 53.531-80.28 0-54.223-19.94-80.203-53.531-80.203-33.685 0-53.641 25.98-53.641 80.203 0 54.411 19.956 80.28 53.641 80.28m0-178.457c46.785 0 74.557 34.361 74.557 98.177 0 63.878-27.772 98.334-74.557 98.334-46.926 0-74.761-34.456-74.761-98.334 0-63.816 27.835-98.177 74.761-98.177M3086.22 126.457v18.084h-92.09v64.021h68.329v17.99h-68.329v91.194h-21.246V126.457h113.336Z" style="fill:#151212;fill-rule:nonzero"/>
  <path style="fill:#151212" d="M1809.91 405.618h75.28v393.871h-75.28z"/>
  <path d="M1932.65 799.492V405.621h82.372l104.734 233.498h1.101V405.621h68.722v393.871h-71.993l-115.113-254.209h-1.085v254.209h-68.738ZM2232.68 799.492V405.621h196.385v66.568H2307.96v90.534h94.922v66.568h-94.922v170.201h-75.28ZM2514.7 682.76c0 21.812 4.356 36.547 13.1 44.174 8.728 7.643 20.727 11.449 35.996 11.449 15.27 0 27.269-3.806 36.013-11.449 8.712-7.627 13.084-22.362 13.084-44.174V522.372c0-21.828-4.372-36.547-13.084-44.19-8.744-7.627-20.743-11.448-36.013-11.448-15.269 0-27.268 3.821-35.996 11.448-8.744 7.643-13.1 22.362-13.1 44.19V682.76Zm-75.28-150.56c0-24.375 3.083-44.928 9.279-61.645 6.18-16.748 14.719-30.288 25.633-40.652 10.914-10.363 23.998-17.911 39.283-22.645 15.27-4.702 31.987-7.076 50.181-7.076 18.18 0 34.912 2.374 50.182 7.076 15.285 4.734 28.369 12.282 39.283 22.645 10.914 10.364 19.453 23.904 25.633 40.652 6.181 16.717 9.279 37.27 9.279 61.645v140.731c0 24.376-3.098 44.914-9.279 61.646-6.18 16.732-14.719 30.288-25.633 40.636-10.914 10.363-23.998 17.927-39.283 22.629-15.27 4.734-32.002 7.108-50.182 7.108-18.194 0-34.911-2.374-50.181-7.108-15.285-4.702-28.369-12.266-39.283-22.629-10.914-10.348-19.453-23.904-25.633-40.636-6.196-16.732-9.279-37.27-9.279-61.646V532.2ZM2795.65 576.919h38.733c16.717 0 29.817-4.262 39.268-12.801 9.467-8.539 14.185-22.457 14.185-41.753 0-19.264-4.718-33.165-14.185-41.736-9.451-8.539-22.551-12.801-39.268-12.801h-38.733v109.091Zm101.464 222.568-65.467-160.372h-35.997v160.372h-75.279V405.616h109.09c45.464 0 79.101 10.301 100.929 30.839 21.827 20.554 32.726 49.552 32.726 87.011 0 24.737-4.624 45.653-13.902 62.731-9.278 17.11-24.47 29.643-45.558 37.632l74.195 175.658h-80.737ZM2999.13 799.492V405.621h105.285l68.187 258.581h1.101l68.187-258.581h105.27v393.871h-64.366V489.645h-1.086l-80.186 309.847h-56.739l-80.186-309.847h-1.101v309.847h-64.366ZM3470.99 650.019h74.729l-36.547-159.288h-1.085l-37.097 159.288Zm-107.455 149.474 97.626-393.87h96.573l94.906 393.87h-72.025l-19.075-82.922h-104.184l-21.277 82.922h-72.544ZM3862.67 405.623v66.552h-87.814v327.318h-75.28V472.175h-87.844v-66.552h250.938Z" style="fill:#151212;fill-rule:nonzero"/>
  <path style="fill:#151212" d="M3882.89 405.618h75.248v393.871h-75.248z"/>
  <path d="M4069.96 682.76c0 21.812 4.356 36.547 13.116 44.174 8.727 7.643 20.695 11.449 35.996 11.449 15.27 0 27.269-3.806 35.997-11.449 8.728-7.627 13.084-22.362 13.084-44.174V522.372c0-21.828-4.356-36.547-13.084-44.19-8.728-7.627-20.727-11.448-35.997-11.448-15.301 0-27.269 3.821-35.996 11.448-8.76 7.643-13.116 22.362-13.116 44.19V682.76Zm-75.28-150.56c0-24.375 3.098-44.928 9.279-61.645 6.164-16.748 14.735-30.288 25.649-40.652 10.898-10.363 23.982-17.911 39.283-22.645 15.254-4.702 32.002-7.076 50.181-7.076 18.179 0 34.896 2.374 50.181 7.076 15.27 4.734 28.354 12.282 39.268 22.645 10.93 10.364 19.469 23.904 25.633 40.652 6.181 16.717 9.279 37.27 9.279 61.645v140.731c0 24.376-3.098 44.914-9.279 61.646-6.164 16.732-14.703 30.288-25.633 40.636-10.914 10.363-23.998 17.927-39.268 22.629-15.285 4.734-32.002 7.108-50.181 7.108-18.179 0-34.927-2.374-50.181-7.108-15.301-4.702-28.385-12.266-39.283-22.629-10.914-10.348-19.485-23.904-25.649-40.636-6.181-16.732-9.279-37.27-9.279-61.646V532.2ZM4280.02 799.492V405.621h82.341l104.734 233.498h1.117V405.621h68.738v393.871h-72.025l-115.098-254.209h-1.1v254.209h-68.707ZM4930.77 405.623v66.552h-87.813v327.318h-75.28V472.175h-87.845v-66.552h250.938ZM4946.62 799.492V405.621h206.183v66.568H5021.9v90.534h99.828v66.568H5021.9v103.665h136.375v66.536H4946.62ZM5259.2 682.76c0 21.812 4.356 36.547 13.084 44.174 8.728 7.643 20.727 11.449 35.997 11.449 15.301 0 27.268-3.806 35.996-11.449 8.759-7.627 13.116-22.362 13.116-44.174v-26.199h75.279v16.37c0 24.376-3.098 44.914-9.278 61.646-6.196 16.732-14.735 30.288-25.633 40.636-10.914 10.363-23.998 17.927-39.299 22.629-15.254 4.734-32.002 7.108-50.181 7.108-18.18 0-34.896-2.374-50.182-7.108-15.27-4.702-28.354-12.266-39.283-22.629-10.914-10.348-19.453-23.904-25.618-40.636-6.211-16.732-9.278-37.27-9.278-61.646V532.2c0-24.375 3.067-44.928 9.278-61.645 6.165-16.748 14.704-30.288 25.618-40.652 10.929-10.363 24.013-17.911 39.283-22.645 15.286-4.702 32.002-7.076 50.182-7.076 18.179 0 34.927 2.374 50.181 7.076 15.301 4.734 28.385 12.282 39.299 22.645 10.898 10.364 19.437 23.904 25.633 40.652 6.18 16.717 9.278 37.27 9.278 61.645v1.07h-75.279v-10.898c0-21.828-4.357-36.547-13.116-44.19-8.728-7.627-20.695-11.448-35.996-11.448-15.27 0-27.269 3.821-35.997 11.448-8.728 7.643-13.084 22.362-13.084 44.19V682.76ZM5469.23 799.492V405.621h75.248v157.102h106.402V405.621h75.279v393.871h-75.279V629.291h-106.402v170.201h-75.248ZM5773.61 799.492V405.621h82.372l104.735 233.498h1.085V405.621h68.738v393.871h-71.993l-115.13-254.209h-1.069v254.209h-68.738ZM6142.37 682.76c0 21.812 4.356 36.547 13.084 44.174 8.728 7.643 20.727 11.449 35.996 11.449 15.302 0 27.269-3.806 35.997-11.449 8.759-7.627 13.115-22.362 13.115-44.174V522.372c0-21.828-4.356-36.547-13.115-44.19-8.728-7.627-20.695-11.448-35.997-11.448-15.269 0-27.268 3.821-35.996 11.448-8.728 7.643-13.084 22.362-13.084 44.19V682.76Zm-75.28-150.56c0-24.375 3.067-44.928 9.278-61.645 6.165-16.748 14.704-30.288 25.618-40.652 10.929-10.363 24.013-17.911 39.283-22.645 15.286-4.702 32.002-7.076 50.181-7.076 18.18 0 34.928 2.374 50.182 7.076 15.301 4.734 28.385 12.282 39.299 22.645 10.898 10.364 19.437 23.904 25.633 40.652 6.18 16.717 9.278 37.27 9.278 61.645v140.731c0 24.376-3.098 44.914-9.278 61.646-6.196 16.732-14.735 30.288-25.633 40.636-10.914 10.363-23.998 17.927-39.299 22.629-15.254 4.734-32.002 7.108-50.182 7.108-18.179 0-34.895-2.374-50.181-7.108-15.27-4.702-28.354-12.266-39.283-22.629-10.914-10.348-19.453-23.904-25.618-40.636-6.211-16.732-9.278-37.27-9.278-61.646V532.2ZM6348.04 799.492V405.621h75.28v327.335h121.105v66.536H6348.04ZM6630.06 682.76c0 21.812 4.356 36.547 13.084 44.174 8.727 7.643 20.726 11.449 35.996 11.449 15.301 0 27.269-3.806 35.997-11.449 8.759-7.627 13.115-22.362 13.115-44.174V522.372c0-21.828-4.356-36.547-13.115-44.19-8.728-7.627-20.696-11.448-35.997-11.448-15.27 0-27.269 3.821-35.996 11.448-8.728 7.643-13.084 22.362-13.084 44.19V682.76Zm-75.28-150.56c0-24.375 3.066-44.928 9.278-61.645 6.165-16.748 14.704-30.288 25.618-40.652 10.929-10.363 24.013-17.911 39.283-22.645 15.285-4.702 32.002-7.076 50.181-7.076 18.179 0 34.927 2.374 50.181 7.076 15.302 4.734 28.386 12.282 39.299 22.645 10.899 10.364 19.438 23.904 25.634 40.652 6.18 16.717 9.278 37.27 9.278 61.645v140.731c0 24.376-3.098 44.914-9.278 61.646-6.196 16.732-14.735 30.288-25.634 40.636-10.913 10.363-23.997 17.927-39.299 22.629-15.254 4.734-32.002 7.108-50.181 7.108-18.179 0-34.896-2.374-50.181-7.108-15.27-4.702-28.354-12.266-39.283-22.629-10.914-10.348-19.453-23.904-25.618-40.636-6.212-16.732-9.278-37.27-9.278-61.646V532.2ZM7023.91 766.765c-10.191 11.637-20.916 20.915-32.191 27.835-11.276 6.888-23.982 10.347-38.183 10.347-18.179 0-34.911-2.374-50.181-7.092-15.301-4.718-28.385-12.282-39.283-22.645-10.898-10.348-19.469-23.888-25.649-40.636-6.181-16.717-9.279-37.271-9.279-61.646V532.197c0-24.375 3.098-44.913 9.279-61.645 6.18-16.733 14.751-30.288 25.649-40.652 10.898-10.363 23.982-17.911 39.283-22.629 15.27-4.718 32.002-7.093 50.181-7.093 38.56 0 68.015 11.009 88.38 32.993 20.349 22.032 31.263 55.56 32.741 100.646h-75.295c0-25.444-4.199-42.995-12.55-52.635-8.366-9.624-19.453-14.452-33.276-14.452-15.285 0-27.268 3.822-35.996 11.449-8.744 7.643-13.116 22.362-13.116 44.19v160.388c0 21.812 4.372 36.547 13.116 44.174 8.728 7.643 20.711 11.449 35.996 11.449 14.201 0 25.382-4.797 33.544-14.437 8.177-9.64 12.282-23.007 12.282-40.101v-23.998h-52.918v-62.196h128.213V799.49h-39.283l-11.464-32.725ZM7229.02 564.387l63.831-158.769h80.187l-107.471 234.567v159.304h-75.28V640.185l-107.471-234.567h80.202l66.002 158.769ZM1886.28 1171.82h74.729l-36.547-159.288h-1.085l-37.097 159.288Zm-107.455 149.475 97.626-393.855h96.573l94.906 393.855h-71.994l-19.107-82.939h-104.184l-21.277 82.939h-72.543ZM2084.31 1321.29V927.434h82.372l104.735 233.467h1.1V927.434h68.723v393.856h-71.994l-115.113-254.21h-1.085v254.21h-68.738ZM2459.62 1254.73h26.184c20.727 0 36.814-5.708 48.279-17.172 11.448-11.449 17.188-31.908 17.188-61.363V1072.53c0-27.992-5.017-48.09-15.003-60.277-10.017-12.172-26.828-18.274-50.464-18.274h-26.184v260.751Zm-75.279-327.287h104.734c21.45 0 40.541 2.453 57.274 7.344 16.732 4.906 30.901 12.832 42.554 23.73 11.637 10.898 20.632 25.004 27.001 42.287 6.354 17.267 9.908 38.277 10.647 62.998v121.121c-.739 24.721-4.293 45.731-10.647 62.982-6.369 17.299-15.364 31.389-27.001 42.303-11.653 10.898-25.822 18.808-42.554 23.715-16.733 4.906-35.824 7.359-57.274 7.359h-104.734V927.443Z" style="fill:#151212;fill-rule:nonzero"/>
  <path style="fill:#151212" d="M2785.83 927.435h75.28v393.855h-75.28z"/>
  <path d="M2908.58 1321.29V927.434h82.373l104.734 233.467h1.101V927.434h68.722v393.856h-71.993l-115.114-254.21h-1.085v254.21h-68.738ZM3212.97 1321.29V927.434h82.372l104.735 233.467h1.101V927.434h68.722v393.856h-71.993l-115.114-254.21h-1.085v254.21h-68.738ZM3581.72 1204.54c0 21.843 4.356 36.547 13.115 44.205 8.728 7.627 20.696 11.449 35.997 11.449 15.27 0 27.269-3.822 35.996-11.449 8.728-7.658 13.084-22.362 13.084-44.205v-160.373c0-21.828-4.356-36.547-13.084-44.19-8.727-7.643-20.726-11.448-35.996-11.448-15.301 0-27.269 3.805-35.997 11.448-8.759 7.643-13.115 22.362-13.115 44.19v160.373Zm-75.264-150.56c0-24.36 3.082-44.913 9.278-61.646 6.18-16.716 14.719-30.272 25.633-40.635 10.914-10.348 23.998-17.912 39.284-22.646 15.254-4.717 32.002-7.092 50.181-7.092 18.179 0 34.896 2.375 50.181 7.092 15.27 4.734 28.354 12.298 39.268 22.646 10.929 10.363 19.468 23.919 25.633 40.635 6.18 16.733 9.278 37.286 9.278 61.646v140.747c0 24.375-3.098 44.913-9.278 61.645-6.165 16.717-14.704 30.273-25.633 40.652-10.914 10.347-23.998 17.911-39.268 22.629-15.285 4.718-32.002 7.093-50.181 7.093-18.179 0-34.927-2.375-50.181-7.093-15.286-4.718-28.37-12.282-39.284-22.629-10.914-10.379-19.453-23.935-25.633-40.652-6.196-16.732-9.278-37.27-9.278-61.645V1053.98ZM3761.77 927.433h74.179l69.289 281.462h1.069l68.754-281.462h73.644l-100.378 393.855h-85.659L3761.77 927.433ZM4122.36 1171.82h74.729l-36.547-159.288h-1.116l-37.066 159.288Zm-107.471 149.475 97.642-393.855h96.541l94.938 393.855h-72.025l-19.075-82.939h-104.216l-21.261 82.939h-72.544ZM4514.03 927.433v66.536h-87.814v327.319h-75.28V993.969h-87.844v-66.536h250.938Z" style="fill:#151212;fill-rule:nonzero"/>
  <path style="fill:#151212" d="M4534.24 927.435h75.248v393.855h-75.248z"/>
  <path d="M4721.33 1204.54c0 21.843 4.356 36.547 13.116 44.205 8.727 7.627 20.695 11.449 35.996 11.449 15.27 0 27.269-3.822 35.997-11.449 8.728-7.658 13.084-22.362 13.084-44.205v-160.373c0-21.828-4.356-36.547-13.084-44.19-8.728-7.643-20.727-11.448-35.997-11.448-15.301 0-27.269 3.805-35.996 11.448-8.76 7.643-13.116 22.362-13.116 44.19v160.373Zm-75.28-150.56c0-24.36 3.098-44.913 9.279-61.646 6.164-16.716 14.735-30.272 25.649-40.635 10.898-10.348 23.982-17.912 39.283-22.646 15.254-4.717 32.002-7.092 50.181-7.092 18.179 0 34.896 2.375 50.181 7.092 15.27 4.734 28.354 12.298 39.268 22.646 10.93 10.363 19.469 23.919 25.633 40.635 6.181 16.733 9.279 37.286 9.279 61.646v140.747c0 24.375-3.098 44.913-9.279 61.645-6.164 16.717-14.703 30.273-25.633 40.652-10.914 10.347-23.998 17.911-39.268 22.629-15.285 4.718-32.002 7.093-50.181 7.093-18.179 0-34.927-2.375-50.181-7.093-15.301-4.718-28.385-12.282-39.283-22.629-10.914-10.379-19.485-23.935-25.649-40.652-6.181-16.732-9.279-37.27-9.279-61.645V1053.98ZM4931.39 1321.29V927.434h82.341l104.734 233.467h1.117V927.434h68.737v393.856h-72.024l-115.098-254.21h-1.101v254.21h-68.706ZM1823.37 1621.14h14.106c17.503 0 26.782-10.237 26.782-25.601 0-16.733-11.732-25.036-29.219-25.036h-11.669v50.637Zm0-78.377h11.669c15.113 0 25.083-8.76 25.083-20.664 0-12.895-7.596-21.152-23.369-21.152h-13.383v41.816Zm-33.559-69.587h47.194c35.949 0 56.66 15.112 56.66 45.29 0 15.349-7.533 27.961-21.639 36.468 18.494 11.638 25.759 21.372 25.759 43.31 0 34.801-23.306 50.558-58.83 50.558h-49.144v-175.626ZM1950.18 1582.21h33.307l-16.276-71.018h-.503l-16.528 71.018Zm-47.901 66.584 43.529-175.627h43.042l42.35 175.627h-32.113l-8.539-36.972h-46.438l-9.467 36.972h-32.364ZM2040.54 1648.8v-175.627h36.751l46.674 104.169h.488v-104.169h30.665V1648.8h-32.08l-51.33-113.384h-.503V1648.8h-30.665ZM2260.28 1634.22c-8.995 10.206-18.698 17-31.389 17-32.584 0-55.465-15.506-55.465-58.799v-62.763c0-43.309 22.881-58.924 55.465-58.924 34.267 0 52.839 19.72 54.034 59.616h-33.574c0-22.566-8.256-29.91-20.46-29.91-13.335 0-21.843 5.347-21.843 24.752v71.569c0 19.421 8.508 24.815 21.843 24.815 12.691 0 20.46-9.199 20.46-24.296v-10.725h-23.605v-27.694h57.179v89.937h-17.534l-5.111-14.578ZM2300.76 1648.8v-175.627h33.591v72.497h.472l43.513-72.497h36.752l-45.26 70.798 50.386 104.829h-37.695l-35.069-73.707-13.099 19.94v53.767h-33.591ZM2455.81 1596.77c0 19.406 8.507 24.816 21.874 24.816 13.383 0 21.906-5.41 21.906-24.816v-71.568c0-19.406-8.523-24.753-21.906-24.753-13.367 0-21.874 5.347-21.874 24.753v71.568Zm-33.607-67.118c0-43.293 22.882-58.909 55.481-58.909 32.6 0 55.466 15.616 55.466 58.909v62.778c0 43.293-22.866 58.799-55.466 58.799-32.599 0-55.481-15.506-55.481-58.799v-62.778ZM2549.55 1648.8v-175.627h33.559v72.497h.487l43.577-72.497h36.704l-45.228 70.798 50.339 104.829h-37.679l-35.038-73.707-13.162 19.94v53.767h-33.559ZM2766.2 1473.17v122.882c0 16.78 7.203 25.539 23.51 25.539 16.355 0 23.904-8.759 23.904-25.539V1473.17h33.559v123.071c0 38.702-22.881 54.978-57.463 54.978-34.487 0-57.116-16.276-57.116-54.978V1473.17h33.606ZM2870.41 1648.8v-175.627h36.688l46.753 104.169h.472v-104.169h30.634V1648.8h-32.112l-51.298-113.384h-.519V1648.8h-30.618Z" style="fill:#151212;fill-rule:nonzero"/>
  <path style="fill:#151212" d="M3008.2 1473.17h33.559v175.627H3008.2z"/>
  <path d="M3051.49 1473.17h33.119l30.854 125.493h.535l30.587-125.493h32.851l-44.74 175.627h-38.183l-45.023-175.627ZM3187.32 1648.8v-175.627h91.981v29.675h-58.39v40.447h44.52v29.643h-44.52v46.203h60.765v29.659h-94.356ZM3331.66 1549.62h17.314c14.829 0 23.856-7.328 23.856-24.422 0-17-9.027-24.249-23.856-24.249h-17.314v48.671Zm45.259 99.183-29.156-71.458h-16.103v71.458h-33.481v-175.626h48.578c40.384 0 59.601 19.5 59.601 52.524 0 21.969-7.753 37.742-26.514 44.803l33.119 78.299h-36.044ZM3496.74 1522.1c-5.598-16.559-12.958-23.589-24.595-23.589-11.904 0-18.509 7.281-18.509 19.233 0 26.467 74.902 28.432 74.902 83.426 0 30.115-20.617 50.055-55.968 50.055-27.19 0-48.405-14.829-57.321-49.363l33.008-7.014c3.9 21.183 16.072 28.7 26.09 28.7 11.684 0 20.632-7.785 20.632-20.947 0-33.072-74.887-33.559-74.887-82.687 0-30.178 18.006-49.175 52.761-49.175 29.926 0 48.184 17.786 54.034 42.602l-30.147 8.759Z" style="fill:#151212;fill-rule:nonzero"/>
  <path style="fill:#151212" d="M3548.84 1473.17h33.559v175.627h-33.559z"/>
  <path d="M3705.29 1473.17v29.675h-39.11v145.952h-33.591v-145.952h-39.236v-29.675h111.937Z" style="fill:#151212;fill-rule:nonzero"/>
  <path d="m3767.44 1543.97 28.464-70.798h35.714l-47.917 104.609v71.018h-33.543v-71.018l-47.933-104.609h35.729l29.486 70.798ZM593.972.204l-120.24 222.821L864.237 19.013 511.222 260.342l993.499-.613h5.41L1249.867 0 593.972.204ZM1049.48 644.06 473.157 349.436l281.824 742.136 747.987-829.903-991.738 49.82 538.25 332.571ZM296.315 57.764l124.062 165.264L591.993.208H260.366L1.596 258.615l382.249.535-87.53-201.386Z" style="fill:#151212;fill-rule:nonzero"/>
  <path d="m324.818 456.362 59.256-143.373-372.091-52.87H0l754.984 831.459-334.222-742.152-95.944 106.936Z" style="fill:#151212;fill-rule:nonzero"/>
</svg>
